<svg width="264" height="248" viewBox="0 0 264 248" fill="none" xmlns="http://www.w3.org/2000/svg">
<rect width="264" height="248"/>
<path d="M169.777 132.487C144.979 124.68 134.67 114.97 134.67 114.97L133.84 115.733C126.476 122.414 118.331 126.342 110.911 126.342H110.211C102.791 126.342 94.6466 122.414 87.2822 115.733L86.4518 114.97C86.4518 114.97 76.1443 124.679 51.3455 132.487C14.7382 145.669 25.73 199.313 25.7194 199.728C26.8724 205.703 27.5444 207.756 28.1299 207.987C64.8917 223.762 156.231 223.762 192.994 207.987C193.579 207.756 194.251 205.703 195.404 199.728C195.394 199.313 206.532 145.882 169.777 132.487Z" fill="white"/>
<path d="M149.007 64.0509L148.7 63.7298C146.64 61.912 146.801 62.0162 146.801 62.0162C146.801 62.0162 150.394 44.5429 147.513 36.2798C142.99 23.0835 115.975 14.239 110.556 13.211C110.557 13.2012 107.261 12.5654 107.05 12.5641C107.05 12.5641 102.788 11.7334 97.8486 13.8103C94.6315 15.0033 77.8126 22.3549 73.0388 36.2798C70.1584 44.5429 73.751 62.0162 73.751 62.0162C73.751 62.0162 73.912 61.912 71.8519 63.7298L71.5452 64.0509C70.1517 65.5761 70.4959 70.3482 72.0191 75.3129C73.3993 80.287 75.1982 81.6238 75.6293 82.7888C79.999 102.565 95.1932 119.45 110.677 119.45C126.161 119.45 140.552 102.565 144.922 82.7888C145.353 81.6242 147.152 80.287 148.533 75.3129C150.056 70.3478 150.44 65.2482 149.007 64.0509Z" fill="white"/>
<circle cx="230.5" cy="218.5" r="5.5" fill="white"/>
<rect x="228.5" y="220" width="4" height="10" rx="2" fill="white"/>
<path d="M214.581 205.5C214.978 197.173 216.812 191.856 219.312 188.601C222.005 185.094 225.85 183.5 231 183.5C236.15 183.5 239.995 185.094 242.688 188.601C245.188 191.856 247.022 197.173 247.419 205.5H231.476H214.581Z" stroke="white" stroke-width="7"/>
<mask id="path-7-inside-1" fill="white">
<rect x="202" y="202" width="57" height="40" rx="5"/>
</mask>
<rect x="202" y="202" width="57" height="40" rx="5" stroke="white" stroke-width="14" mask="url(#path-7-inside-1)"/>
</svg>
