<svg width="179" height="214" viewBox="0 0 179 214" fill="none" xmlns="http://www.w3.org/2000/svg">
<rect width="179" height="214"/>
<path d="M65.5 27H26C24.3431 27 23 28.3431 23 30V203C23 204.657 24.3431 206 26 206H157C158.657 206 160 204.657 160 203V30C160 28.3431 158.657 27 157 27H116" stroke="white" stroke-width="6"/>
<path d="M77 18H68C66.3431 18 65 19.3431 65 21V37C65 38.6569 66.3431 40 68 40H112C113.657 40 115 38.6569 115 37V21C115 19.3431 113.657 18 112 18H103" stroke="white" stroke-width="6"/>
<circle cx="90" cy="18" r="9.5" stroke="white" stroke-width="7"/>
<rect x="35.5" y="60.5" width="22" height="22" rx="3.5" stroke="white" stroke-width="3"/>
<rect x="35.5" y="93.5" width="22" height="22" rx="3.5" stroke="white" stroke-width="3"/>
<rect x="35.5" y="126.5" width="22" height="22" rx="3.5" stroke="white" stroke-width="3"/>
<rect x="35.5" y="161.5" width="22" height="22" rx="3.5" stroke="white" stroke-width="3"/>
<line x1="68.5" y1="66.5" x2="97.5" y2="66.5" stroke="white" stroke-width="5" stroke-linecap="round"/>
<line x1="67.5" y1="74.5" x2="138.5" y2="74.5" stroke="white" stroke-width="3" stroke-linecap="round"/>
<line x1="67.5" y1="81.5" x2="138.5" y2="81.5" stroke="white" stroke-width="3" stroke-linecap="round"/>
<line x1="68.5" y1="132.5" x2="97.5" y2="132.5" stroke="white" stroke-width="5" stroke-linecap="round"/>
<line x1="67.5" y1="140.5" x2="138.5" y2="140.5" stroke="white" stroke-width="3" stroke-linecap="round"/>
<line x1="67.5" y1="147.5" x2="138.5" y2="147.5" stroke="white" stroke-width="3" stroke-linecap="round"/>
<line x1="68.5" y1="166.5" x2="97.5" y2="166.5" stroke="white" stroke-width="5" stroke-linecap="round"/>
<line x1="67.5" y1="174.5" x2="138.5" y2="174.5" stroke="white" stroke-width="3" stroke-linecap="round"/>
<line x1="67.5" y1="181.5" x2="138.5" y2="181.5" stroke="white" stroke-width="3" stroke-linecap="round"/>
<line x1="68.5" y1="100.5" x2="97.5" y2="100.5" stroke="white" stroke-width="5" stroke-linecap="round"/>
<line x1="67.5" y1="108.5" x2="138.5" y2="108.5" stroke="white" stroke-width="3" stroke-linecap="round"/>
<line x1="67.5" y1="115.5" x2="138.5" y2="115.5" stroke="white" stroke-width="3" stroke-linecap="round"/>
</svg>
