<svg width="214" height="174" viewBox="0 0 214 174" fill="none" xmlns="http://www.w3.org/2000/svg">
<rect width="214" height="174"/>
<rect x="16.5" y="41.5" width="159" height="105" stroke="white" stroke-width="5"/>
<rect x="11.5" y="27.5" width="169" height="12" rx="1.5" stroke="white" stroke-width="3"/>
<path d="M43 6.5H150C153.038 6.5 155.5 8.96243 155.5 12V25.5H37.5V12C37.5 8.96243 39.9624 6.5 43 6.5Z" stroke="white" stroke-width="5"/>
<rect x="33.5" y="82.5" width="50" height="31" rx="2.5" stroke="white" stroke-width="5"/>
<rect x="129.5" y="80.5" width="31" height="66" stroke="white" stroke-width="5"/>
<path d="M30 41H19C18.4477 41 18 41.4477 18 42V55.821C18 56.1082 18.1234 56.3815 18.3389 56.5713L23.7858 61.3707C24.1858 61.7232 24.792 61.6999 25.1637 61.3177L30.7168 55.6093C30.8984 55.4226 31 55.1725 31 54.912V42C31 41.4477 30.5523 41 30 41Z" stroke="white" stroke-width="3"/>
<path d="M43 41H32C31.4477 41 31 41.4477 31 42V55.821C31 56.1082 31.1234 56.3815 31.3389 56.5713L36.7858 61.3707C37.1858 61.7232 37.792 61.6999 38.1637 61.3177L43.7168 55.6093C43.8984 55.4226 44 55.1725 44 54.912V42C44 41.4477 43.5523 41 43 41Z" stroke="white" stroke-width="3"/>
<path d="M56 41H45C44.4477 41 44 41.4477 44 42V55.821C44 56.1082 44.1234 56.3815 44.3389 56.5713L49.7858 61.3707C50.1858 61.7232 50.792 61.6999 51.1637 61.3177L56.7168 55.6093C56.8984 55.4226 57 55.1725 57 54.912V42C57 41.4477 56.5523 41 56 41Z" stroke="white" stroke-width="3"/>
<path d="M69 41H58C57.4477 41 57 41.4477 57 42V55.821C57 56.1082 57.1234 56.3815 57.3389 56.5713L62.7858 61.3707C63.1858 61.7232 63.792 61.6999 64.1637 61.3177L69.7168 55.6093C69.8984 55.4226 70 55.1725 70 54.912V42C70 41.4477 69.5523 41 69 41Z" stroke="white" stroke-width="3"/>
<path d="M82 41H71C70.4477 41 70 41.4477 70 42V55.821C70 56.1082 70.1234 56.3815 70.3389 56.5713L75.7858 61.3707C76.1858 61.7232 76.792 61.6999 77.1637 61.3177L82.7168 55.6093C82.8984 55.4226 83 55.1725 83 54.912V42C83 41.4477 82.5523 41 82 41Z" stroke="white" stroke-width="3"/>
<path d="M95 41H84C83.4477 41 83 41.4477 83 42V55.821C83 56.1082 83.1234 56.3815 83.3389 56.5713L88.7858 61.3707C89.1858 61.7232 89.792 61.6999 90.1637 61.3177L95.7168 55.6093C95.8984 55.4226 96 55.1725 96 54.912V42C96 41.4477 95.5523 41 95 41Z" stroke="white" stroke-width="3"/>
<path d="M108 41H97C96.4477 41 96 41.4477 96 42V55.821C96 56.1082 96.1234 56.3815 96.3389 56.5713L101.786 61.3707C102.186 61.7232 102.792 61.6999 103.164 61.3177L108.717 55.6093C108.898 55.4226 109 55.1725 109 54.912V42C109 41.4477 108.552 41 108 41Z" stroke="white" stroke-width="3"/>
<path d="M121 41H110C109.448 41 109 41.4477 109 42V55.821C109 56.1082 109.123 56.3815 109.339 56.5713L114.786 61.3707C115.186 61.7232 115.792 61.6999 116.164 61.3177L121.717 55.6093C121.898 55.4226 122 55.1725 122 54.912V42C122 41.4477 121.552 41 121 41Z" stroke="white" stroke-width="3"/>
<path d="M134 41H123C122.448 41 122 41.4477 122 42V55.821C122 56.1082 122.123 56.3815 122.339 56.5713L127.786 61.3707C128.186 61.7232 128.792 61.6999 129.164 61.3177L134.717 55.6093C134.898 55.4226 135 55.1725 135 54.912V42C135 41.4477 134.552 41 134 41Z" stroke="white" stroke-width="3"/>
<path d="M147 41H136C135.448 41 135 41.4477 135 42V55.821C135 56.1082 135.123 56.3815 135.339 56.5713L140.786 61.3707C141.186 61.7232 141.792 61.6999 142.164 61.3177L147.717 55.6093C147.898 55.4226 148 55.1725 148 54.912V42C148 41.4477 147.552 41 147 41Z" stroke="white" stroke-width="3"/>
<path d="M160 41H149C148.448 41 148 41.4477 148 42V55.821C148 56.1082 148.123 56.3815 148.339 56.5713L153.786 61.3707C154.186 61.7232 154.792 61.6999 155.164 61.3177L160.717 55.6093C160.898 55.4226 161 55.1725 161 54.912V42C161 41.4477 160.552 41 160 41Z" stroke="white" stroke-width="3"/>
<path d="M173 41H162C161.448 41 161 41.4477 161 42V55.821C161 56.1082 161.123 56.3815 161.339 56.5713L166.786 61.3707C167.186 61.7232 167.792 61.6999 168.164 61.3177L173.717 55.6093C173.898 55.4226 174 55.1725 174 54.912V42C174 41.4477 173.552 41 173 41Z" stroke="white" stroke-width="3"/>
<rect x="178" y="149.661" width="30.72" height="9.84058" rx="4.92029" fill="white"/>
<rect x="188.24" y="171.333" width="32.3333" height="10.24" rx="5" transform="rotate(-90 188.24 171.333)" fill="white"/>
<circle cx="151.5" cy="117.5" r="3.5" fill="white"/>
</svg>
