<svg width="55" height="56" viewBox="0 0 55 56" fill="none" xmlns="http://www.w3.org/2000/svg">
<rect y="1" width="55" height="55"/>
<path d="M37.6475 9.18531C39.1598 6.91704 43.7021 2.50666 47.8246 5.60416C51.9472 8.70167 48.9754 14.2921 47.2177 16.3759M37.6475 9.18531L47.2177 16.3759M37.6475 9.18531L22.9324 28.77C22.6012 29.5857 22.8375 36.8625 23.7969 37.5833C24.7563 38.3042 31.8112 36.5057 32.5026 35.9607L47.2177 16.3759" stroke="#020069" stroke-width="2" stroke-linecap="round"/>
<path d="M31 10.5H7C5.89543 10.5 5 11.3954 5 12.5V48.5C5 49.6046 5.89543 50.5 7 50.5H43C44.1046 50.5 45 49.6046 45 48.5V26.5" stroke="#020069" stroke-width="3" stroke-linecap="round"/>
</svg>
