<svg width="180" height="148" viewBox="0 0 180 148" fill="none" xmlns="http://www.w3.org/2000/svg">
<rect width="180" height="148"/>
<path d="M70.5 28.5H75.5V48.5H70.5V28.5Z" stroke="white" stroke-width="3"/>
<mask id="path-3-inside-1" fill="white">
<path d="M72.5 25H73.5V28H72.5V25Z"/>
</mask>
<path d="M72.5 25V22H69.5V25H72.5ZM73.5 25H76.5V22H73.5V25ZM73.5 28V31H76.5V28H73.5ZM72.5 28H69.5V31H72.5V28ZM72.5 28H73.5V22H72.5V28ZM70.5 25V28H76.5V25H70.5ZM73.5 25H72.5V31H73.5V25ZM75.5 28V25H69.5V28H75.5Z" fill="white" mask="url(#path-3-inside-1)"/>
<mask id="path-5-inside-2" fill="white">
<path d="M94.5 25H95.5V28H94.5V25Z"/>
</mask>
<path d="M94.5 25V22H91.5V25H94.5ZM95.5 25H98.5V22H95.5V25ZM95.5 28V31H98.5V28H95.5ZM94.5 28H91.5V31H94.5V28ZM94.5 28H95.5V22H94.5V28ZM92.5 25V28H98.5V25H92.5ZM95.5 25H94.5V31H95.5V25ZM97.5 28V25H91.5V28H97.5Z" fill="white" mask="url(#path-5-inside-2)"/>
<mask id="path-7-inside-3" fill="white">
<path d="M116.5 25H117.5V28H116.5V25Z"/>
</mask>
<path d="M116.5 25V22H113.5V25H116.5ZM117.5 25H120.5V22H117.5V25ZM117.5 28V31H120.5V28H117.5ZM116.5 28H113.5V31H116.5V28ZM116.5 28H117.5V22H116.5V28ZM114.5 25V28H120.5V25H114.5ZM117.5 25H116.5V31H117.5V25ZM119.5 28V25H113.5V28H119.5Z" fill="white" mask="url(#path-7-inside-3)"/>
<path d="M92.5 28.5H97.5V48.5H92.5V28.5Z" stroke="white" stroke-width="3"/>
<path d="M114.5 28.5H119.5V48.5H114.5V28.5Z" stroke="white" stroke-width="3"/>
<path d="M75.6793 18.1382C76.3769 19.0914 76.4328 20.4892 75.861 21.7251C75.2961 22.9461 74.2435 23.75 73 23.75C71.7565 23.75 70.7039 22.9461 70.139 21.7251C69.5672 20.4891 69.6231 19.0913 70.3206 18.1382C71.3805 16.6898 72.3231 15.0563 72.9999 13.7893C73.6768 15.0563 74.6193 16.6898 75.6793 18.1382Z" stroke="white" stroke-width="2.5"/>
<path d="M97.6793 18.1382C98.3769 19.0914 98.4328 20.4892 97.861 21.7251C97.2961 22.9461 96.2435 23.75 95 23.75C93.7565 23.75 92.7039 22.9461 92.139 21.7251C91.5672 20.4891 91.6231 19.0913 92.3206 18.1382C93.3805 16.6898 94.3231 15.0563 94.9999 13.7893C95.6768 15.0563 96.6193 16.6898 97.6793 18.1382Z" stroke="white" stroke-width="2.5"/>
<path d="M119.679 18.1382C120.377 19.0914 120.433 20.4892 119.861 21.7251C119.296 22.9461 118.243 23.75 117 23.75C115.756 23.75 114.704 22.9461 114.139 21.7251C113.567 20.4891 113.623 19.0913 114.321 18.1382C115.38 16.6898 116.323 15.0563 117 13.7893C117.677 15.0563 118.619 16.6898 119.679 18.1382Z" stroke="white" stroke-width="2.5"/>
<mask id="path-14-inside-4" fill="white">
<rect x="20" y="125" width="147" height="19" rx="3"/>
</mask>
<rect x="20" y="125" width="147" height="19" rx="3" stroke="white" stroke-width="8" mask="url(#path-14-inside-4)"/>
<path d="M42 83H145C152.18 83 158 88.8203 158 96V127H29V96C29 88.8203 34.8203 83 42 83Z" stroke="white" stroke-width="4"/>
<path d="M28 93C33.0385 93 34.0462 98 44.1231 98C54.2 98 53.1923 93 60.2462 93" stroke="white" stroke-width="4"/>
<path d="M60.2462 93C65.5995 93 66.6702 98 77.3769 98C88.0837 98 87.013 93 94.5077 93" stroke="white" stroke-width="4"/>
<path d="M94.5077 93C99.5462 93 100.554 98 110.631 98C120.708 98 119.7 93 126.754 93" stroke="white" stroke-width="4"/>
<path d="M126.754 93C131.792 93 132.8 98 142.877 98C152.954 98 151.946 93 159 93" stroke="white" stroke-width="4"/>
<path d="M54 50H134C138.418 50 142 53.5817 142 58V82H46V58C46 53.5817 49.5817 50 54 50Z" stroke="white" stroke-width="4"/>
<path d="M45 58C50 58 51 63 61 63C71 63 70 58 77 58" stroke="white" stroke-width="4"/>
<path d="M77 58C82.3125 58 83.375 63 94 63C104.625 63 103.563 58 111 58" stroke="white" stroke-width="4"/>
<path d="M111 58C116 58 117 63 127 63C137 63 136 58 143 58" stroke="white" stroke-width="4"/>
<path d="M58 55C60.4471 57.4471 61.6863 58.6863 62 59" stroke="white" stroke-width="2"/>
<path d="M44 21C46.4471 23.4471 47.6863 24.6863 48 25" stroke="white" stroke-width="2"/>
<path d="M140 20C142.447 22.4471 143.686 23.6863 144 24" stroke="white" stroke-width="2"/>
<path d="M49 39C51.4471 41.4471 52.6863 42.6863 53 43" stroke="white" stroke-width="2"/>
<path d="M134 39C136.447 41.4471 137.686 42.6863 138 43" stroke="white" stroke-width="2"/>
<path d="M93 55C95.4471 57.4471 96.6863 58.6863 97 59" stroke="white" stroke-width="2"/>
<path d="M126 55C128.447 57.4471 129.686 58.6863 130 59" stroke="white" stroke-width="2"/>
<path d="M75 89C77.4471 91.4471 78.6863 92.6863 79 93" stroke="white" stroke-width="2"/>
<path d="M141 90C143.447 92.4471 144.686 93.6863 145 94" stroke="white" stroke-width="2"/>
<path d="M108 89C110.447 91.4471 111.686 92.6863 112 93" stroke="white" stroke-width="2"/>
<path d="M42 90C44.4471 92.4471 45.6863 93.6863 46 94" stroke="white" stroke-width="2"/>
<path d="M95 100.236L96.9676 106.292C97.2354 107.116 98.0033 107.674 98.8697 107.674H105.237L100.086 111.416C99.3848 111.926 99.0915 112.828 99.3593 113.652L101.327 119.708L96.1756 115.966C95.4746 115.456 94.5254 115.456 93.8244 115.966L88.6731 119.708L90.6407 113.652C90.9085 112.828 90.6152 111.926 89.9142 111.416L84.7629 107.674L91.1303 107.674C91.9967 107.674 92.7646 107.116 93.0324 106.292L95 100.236Z" stroke="white" stroke-width="2"/>
<path d="M21.3996 22.5427L26.4297 26.4468C27.1141 26.9781 28.0629 27.0082 28.7796 26.5214L34.047 22.944L31.8884 28.9343C31.5946 29.7494 31.8591 30.661 32.5436 31.1923L37.5736 35.0964L31.2095 34.8945C30.3435 34.867 29.5582 35.4003 29.2645 36.2154L27.1058 42.2057L25.3312 36.0906C25.0897 35.2585 24.3399 34.6765 23.4739 34.649L17.1097 34.4471L22.3771 30.8697C23.0939 30.3829 23.4157 29.4899 23.1742 28.6578L21.3996 22.5427Z" stroke="white" stroke-width="2"/>
<path d="M154.4 26.5427L159.43 30.4468C160.114 30.9781 161.063 31.0082 161.78 30.5214L167.047 26.944L164.888 32.9343C164.595 33.7494 164.859 34.661 165.544 35.1923L170.574 39.0964L164.209 38.8945C163.343 38.867 162.558 39.4003 162.264 40.2154L160.106 46.2057L158.331 40.0906C158.09 39.2585 157.34 38.6765 156.474 38.649L150.11 38.4471L155.377 34.8697C156.094 34.3829 156.416 33.4899 156.174 32.6578L154.4 26.5427Z" stroke="white" stroke-width="2"/>
</svg>
