<svg width="228" height="203" viewBox="0 0 228 203" fill="none" xmlns="http://www.w3.org/2000/svg">
<rect width="228" height="203" fill="#C4C4C4"/>
<path d="M173.42 116.529C148.528 109.603 138.181 100.99 138.181 100.99L137.347 101.666C129.955 107.593 121.779 111.078 114.331 111.078H113.628C106.181 111.078 98.0051 107.593 90.6128 101.666L89.7792 100.99C89.7792 100.99 79.4327 109.603 54.54 116.529C17.794 128.222 28.8274 175.81 28.8168 176.178C29.9742 181.478 30.6487 183.3 31.2365 183.504C68.1375 197.499 159.823 197.499 196.725 183.504C197.312 183.3 197.987 181.478 199.144 176.178C199.134 175.81 210.315 128.411 173.42 116.529Z" fill="white"/>
<path d="M152.571 55.8194L152.263 55.5346C150.196 53.922 150.357 54.0144 150.357 54.0144C150.357 54.0144 153.963 38.5139 151.072 31.1837C146.532 19.4773 119.414 11.6314 113.975 10.7195C113.976 10.7108 110.667 10.1467 110.456 10.1456C110.456 10.1456 106.178 9.40873 101.219 11.2511C97.99 12.3094 81.1074 18.831 76.3155 31.1837C73.4241 38.5139 77.0303 54.0144 77.0303 54.0144C77.0303 54.0144 77.192 53.922 75.124 55.5346L74.8162 55.8194C73.4175 57.1724 73.7629 61.4057 75.2919 65.8099C76.6773 70.2224 78.4831 71.4083 78.9158 72.4417C83.302 89.9849 98.5538 104.964 114.096 104.964C129.638 104.964 144.085 89.9849 148.471 72.4417C148.904 71.4086 150.71 70.2224 152.095 65.8099C153.624 61.4053 154.01 56.8815 152.571 55.8194Z" fill="white"/>
</svg>
